<svg xmlns="http://www.w3.org/2000/svg" viewBox="0 0 64 64" role="img" aria-labelledby="title">
  <title>Arb Arena Shield Logo</title>
  <defs>
    <!-- Shield gradient (lighter blues) -->
    <linearGradient id="shieldGrad" x1="0" y1="1" x2="1" y2="0">
      <stop stop-color="#3b82f6"/>
      <stop offset="1" stop-color="#60a5fa"/>
    </linearGradient>
  </defs>

<g transform="translate(0,-1.5) scale(0.95)" fill="#ffffff" stroke="none">
  <!-- Full-box shield (same as before) -->
  <path d="M32 2l26 10v18c0 16-10 30-26 36C16 60 6 46 6 30V12L32 2z"
        fill="url(#shieldGrad)" stroke="#fff" stroke-width="3" />

  <!-- Your A with sweeping arrow, scaled into the middle of the shield -->
  <g transform="translate(14,48) scale(0.004,-0.004)" fill="#ffffff" stroke="none">
    <path d="M3680 7977 c-11 -18 -20 -36 -20 -40 0 -7 -34 -81 -141 -303 -21 -45 -39 -84 -39 -87 0 -3 -23 -55 -51 -114 -52 -110 -87 -184 -132 -283 -31 -68 -79 -173 -122 -265 -18 -38 -40 -88 -50 -110 -9 -22 -37 -83 -62 -135 -25 -52 -58 -122 -73 -155 -49 -106 -87 -188 -130 -280 -23 -49 -58 -124 -77 -165 -19 -41 -45 -97 -58 -125 -13 -27 -43 -93 -68 -145 -25 -52 -60 -126 -77 -165 -58 -128 -73 -159 -116 -250 -23 -49 -63 -135 -89 -190 -26 -55 -53 -113 -61 -130 -7 -16 -24 -55 -38 -85 -14 -30 -36 -80 -49 -111 -14 -30 -44 -96 -67 -145 -23 -49 -53 -111 -65 -139 -13 -27 -36 -77 -50 -110 -15 -33 -45 -98 -67 -145 -41 -86 -62 -131 -116 -250 -16 -36 -51 -110 -77 -165 -26 -55 -59 -127 -75 -160 -15 -33 -48 -103 -73 -155 -25 -52 -57 -121 -71 -152 -14 -32 -38 -84 -52 -115 -14 -32 -50 -107 -79 -168 -29 -60 -64 -135 -78 -166 -14 -30 -48 -102 -75 -160 -27 -57 -60 -126 -72 -154 -12 -27 -41 -90 -65 -140 -24 -49 -57 -119 -73 -155 -16 -36 -43 -94 -60 -130 -16 -36 -42 -92 -57 -125 -15 -33 -43 -94 -62 -135 -122 -259 -128 -272 -184 -395 -17 -38 -52 -113 -76 -165 -82 -173 -101 -214 -139 -295 -64 -140 -145 -309 -160 -338 -33 -60 -79 -57 796 -57 l801 0 35 78 c19 42 46 100 59 127 13 28 35 76 49 108 46 102 77 171 111 242 18 39 44 95 58 125 13 30 39 87 57 125 17 39 38 84 45 100 7 17 31 68 53 115 87 185 102 220 121 267 10 27 28 64 38 83 22 39 19 38 228 59 95 10 138 17 250 42 28 6 78 14 113 19 34 5 79 14 100 19 20 5 73 17 117 26 44 9 95 23 113 31 18 8 39 14 46 14 15 0 62 13 236 66 63 20 122 39 130 44 9 4 30 11 48 14 17 4 34 12 37 17 4 5 14 9 23 9 9 0 30 7 46 15 15 8 33 15 38 15 5 0 30 9 56 21 26 11 58 25 72 31 14 5 39 16 55 23 17 8 48 21 70 30 117 48 400 187 515 253 237 136 482 287 560 346 30 23 89 64 130 91 76 50 184 131 230 172 14 13 28 23 31 23 3 0 19 11 35 25 16 14 50 42 77 63 72 56 237 194 267 222 15 14 73 66 129 115 216 189 612 586 911 914 98 107 84 92 175 196 39 44 76 86 82 93 7 7 33 40 58 72 71 92 71 92 157 6 40 -40 141 -144 223 -231 327 -344 314 -332 329 -312 7 9 16 42 20 73 3 31 13 81 20 112 17 69 34 157 46 237 5 33 16 94 24 135 8 41 19 102 25 135 6 33 17 94 25 135 8 41 22 120 31 175 9 55 23 125 31 156 8 30 14 70 14 88 0 18 4 40 9 49 5 9 14 53 20 97 6 44 18 116 25 160 8 44 19 109 26 145 6 36 15 81 21 100 5 19 14 64 19 100 10 72 32 195 54 310 8 41 19 102 25 135 6 33 16 80 22 105 6 25 13 80 16 123 7 87 9 85 -77 67 -25 -6 -71 -15 -103 -20 -32 -6 -66 -15 -75 -20 -9 -5 -39 -14 -67 -20 -27 -6 -81 -18 -120 -26 -38 -9 -88 -19 -110 -24 -22 -4 -76 -18 -120 -30 -44 -12 -107 -28 -140 -35 -72 -16 -178 -41 -260 -61 -64 -16 -153 -36 -250 -58 -33 -8 -98 -23 -145 -35 -47 -12 -116 -29 -155 -38 -38 -8 -91 -22 -117 -29 -26 -8 -53 -14 -61 -14 -8 0 -37 -6 -63 -14 -27 -8 -85 -22 -129 -31 -79 -16 -102 -22 -220 -51 -33 -8 -89 -21 -125 -28 -78 -17 -102 -26 -98 -36 6 -16 497 -530 576 -603 17 -17 32 -39 32 -50 0 -11 -33 -56 -72 -102 -40 -45 -84 -95 -98 -111 -129 -149 -174 -199 -235 -262 -38 -41 -88 -95 -110 -120 -57 -68 -462 -472 -585 -584 -138 -125 -259 -231 -351 -303 -41 -33 -78 -63 -84 -67 -5 -5 -32 -25 -60 -45 -27 -21 -54 -41 -60 -45 -5 -4 -50 -37 -100 -73 -49 -35 -94 -68 -100 -72 -5 -5 -28 -20 -50 -33 -22 -13 -42 -27 -45 -30 -3 -3 -23 -17 -45 -30 -22 -13 -42 -27 -45 -30 -7 -8 -268 -165 -345 -207 -80 -43 -323 -163 -410 -203 -175 -79 -203 -90 -217 -90 -8 0 -18 -4 -24 -8 -11 -10 -73 -33 -174 -62 -41 -13 -79 -26 -85 -30 -15 -10 -151 -46 -290 -76 -154 -33 -158 -31 -125 40 11 25 20 47 20 50 0 3 11 29 24 58 14 29 37 81 51 116 14 35 44 102 65 148 22 46 40 91 40 99 0 7 4 16 9 19 5 3 12 17 15 30 3 14 20 55 37 93 44 99 45 100 84 198 48 117 48 117 89 208 20 42 36 82 36 87 0 6 4 18 9 28 20 36 81 174 81 183 0 5 4 17 10 27 5 9 16 33 24 52 8 19 24 56 35 82 12 26 21 49 21 52 0 2 14 35 31 73 38 85 52 118 69 163 7 19 28 68 46 108 19 41 34 78 34 83 0 5 4 17 9 27 10 17 44 93 66 147 42 99 74 175 91 212 8 17 14 36 14 42 0 6 4 19 10 29 15 28 76 164 90 202 7 19 22 55 32 80 99 233 118 271 126 266 5 -3 16 -24 26 -48 10 -24 24 -56 31 -73 12 -26 31 -71 65 -150 4 -11 18 -45 30 -75 23 -59 35 -88 55 -135 8 -16 21 -48 30 -70 9 -22 22 -53 30 -70 7 -16 23 -55 34 -85 12 -30 26 -64 31 -75 8 -17 23 -52 60 -140 4 -11 18 -45 30 -75 23 -60 24 -62 69 -163 17 -38 31 -71 31 -74 0 -3 6 -19 14 -36 8 -18 31 -72 52 -122 20 -49 41 -94 45 -99 5 -6 9 -17 9 -25 1 -9 9 -34 20 -56 11 -22 19 -46 20 -52 0 -24 26 -13 81 34 30 25 92 78 139 116 47 39 90 75 95 81 6 6 60 56 120 111 61 55 128 117 150 139 22 22 71 69 110 105 103 98 375 402 375 421 0 9 -21 59 -48 111 -26 52 -54 110 -61 129 -15 38 -46 106 -111 244 -23 49 -53 115 -67 145 -49 110 -56 127 -95 211 -22 47 -50 108 -63 135 -12 28 -38 84 -58 125 -50 107 -92 197 -117 255 -13 28 -39 86 -60 130 -21 44 -48 103 -60 130 -33 74 -77 170 -120 260 -21 44 -45 98 -55 120 -36 85 -58 131 -72 146 -13 15 -83 17 -764 17 l-750 1 -19 -32z"/>
    <path d="M6885 3916 c-141 -143 -373 -362 -445 -421 -25 -21 -65 -54 -89 -74 -64 -52 -173 -144 -193 -161 -9 -8 -71 -55 -137 -105 -72 -54 -121 -97 -121 -107 0 -18 20 -65 121 -275 33 -68 59 -126 59 -130 0 -3 13 -34 29 -67 62 -132 114 -242 138 -295 14 -31 36 -78 48 -106 13 -27 33 -72 45 -100 12 -27 42 -93 67 -145 53 -112 80 -170 123 -265 17 -38 47 -101 65 -140 36 -76 71 -152 105 -230 28 -62 70 -153 125 -270 24 -49 57 -121 74 -160 18 -38 40 -86 49 -105 l18 -35 799 0 c747 0 800 1 803 17 4 18 -1 28 -88 213 -63 133 -102 217 -132 285 -11 25 -35 77 -53 115 -40 84 -123 262 -135 290 -10 24 -84 181 -150 320 -27 55 -63 132 -80 170 -18 39 -46 99 -62 135 -17 36 -41 90 -55 120 -14 30 -44 96 -68 145 -24 50 -60 126 -80 170 -21 44 -63 134 -95 200 -31 66 -64 136 -72 155 -17 37 -59 129 -128 277 -23 48 -52 111 -65 138 -13 28 -42 90 -65 139 -39 82 -67 145 -107 236 -50 114 -96 200 -106 198 -7 -1 -70 -60 -142 -132z"/>
  </g>
</g>
</svg>
